<svg preserveAspectRatio="none" overflow="visible" style="display: block;" width="45.6521" height="45.6521" viewBox="0 0 45.6521 45.6521" fill="none" xmlns="http://www.w3.org/2000/svg">
<g id="users-group">
<g id="Vector 1">
<path fill-rule="evenodd" clip-rule="evenodd" d="M33.288 4.27989C29.8737 4.27989 27.1059 7.04769 27.1059 10.4619C27.1059 13.8762 29.8737 16.644 33.288 16.644C36.7023 16.644 39.4701 13.8762 39.4701 10.4619C39.4701 7.04769 36.7023 4.27989 33.288 4.27989ZM29.9592 10.4619C29.9592 8.6235 31.4496 7.13314 33.288 7.13314C35.1264 7.13314 36.6168 8.6235 36.6168 10.4619C36.6168 12.3004 35.1264 13.7907 33.288 13.7907C31.4496 13.7907 29.9592 12.3004 29.9592 10.4619Z" fill="#FF2628"/>
<path fill-rule="evenodd" clip-rule="evenodd" d="M16.644 22.8261C16.644 19.4118 19.4118 16.644 22.8261 16.644C26.2403 16.644 29.0081 19.4118 29.0081 22.8261C29.0081 26.2403 26.2403 29.0081 22.8261 29.0081C19.4118 29.0081 16.644 26.2403 16.644 22.8261ZM22.8261 19.4973C20.9876 19.4973 19.4973 20.9876 19.4973 22.8261C19.4973 24.6645 20.9876 26.1549 22.8261 26.1549C24.6645 26.1549 26.1549 24.6645 26.1549 22.8261C26.1549 20.9876 24.6645 19.4973 22.8261 19.4973Z" fill="#FF2628"/>
<path d="M12.3641 21.3994C8.58513 21.3994 5.23097 23.8731 5.23097 27.5815C5.23097 28.3694 4.59225 29.0081 3.80434 29.0081C3.01644 29.0081 2.37771 28.3694 2.37771 27.5815C2.37771 21.779 7.58328 18.5462 12.3641 18.5462C12.514 18.5462 12.6638 18.5492 12.8134 18.5553C13.6007 18.5872 14.213 19.2512 14.1811 20.0385C14.1493 20.8257 13.4852 21.4381 12.6979 21.4062C12.5866 21.4017 12.4753 21.3994 12.3641 21.3994Z" fill="#FF2628"/>
<path d="M33.288 21.3994C33.1768 21.3994 33.0655 21.4017 32.9542 21.4062C32.1669 21.4381 31.5029 20.8257 31.471 20.0385C31.4391 19.2512 32.0514 18.5872 32.8387 18.5553C32.9883 18.5492 33.1381 18.5462 33.288 18.5462C38.0688 18.5462 43.2744 21.779 43.2744 27.5815C43.2744 28.3694 42.6357 29.0081 41.8478 29.0081C41.0599 29.0081 40.4211 28.3694 40.4211 27.5815C40.4211 23.8731 37.067 21.3994 33.288 21.3994Z" fill="#FF2628"/>
<path fill-rule="evenodd" clip-rule="evenodd" d="M6.18206 10.4619C6.18206 7.04769 8.94986 4.27989 12.3641 4.27989C15.7784 4.27989 18.5462 7.04769 18.5462 10.4619C18.5462 13.8762 15.7784 16.644 12.3641 16.644C8.94986 16.644 6.18206 13.8762 6.18206 10.4619ZM12.3641 7.13314C10.5257 7.13314 9.03531 8.6235 9.03531 10.4619C9.03531 12.3004 10.5257 13.7907 12.3641 13.7907C14.2026 13.7907 15.6929 12.3004 15.6929 10.4619C15.6929 8.6235 14.2026 7.13314 12.3641 7.13314Z" fill="#FF2628"/>
<path d="M15.6929 39.9456C15.6929 36.2373 19.0471 33.7635 22.826 33.7635C26.605 33.7635 29.9592 36.2373 29.9592 39.9456C29.9592 40.7335 30.5979 41.3722 31.3858 41.3722C32.1737 41.3722 32.8125 40.7335 32.8125 39.9456C32.8125 34.1431 27.6069 30.9103 22.826 30.9103C18.0452 30.9103 12.8397 34.1431 12.8397 39.9456C12.8397 40.7335 13.4784 41.3722 14.2663 41.3722C15.0542 41.3722 15.6929 40.7335 15.6929 39.9456Z" fill="#FF2628"/>
</g>
</g>
</svg>
